<svg width="49" height="49" viewBox="0 0 49 49" fill="none" xmlns="http://www.w3.org/2000/svg">
<path d="M4.5 4.04431H7.98001C10.14 4.04431 11.84 5.90431 11.66 8.04431L10 27.9643C9.72 31.2243 12.3 34.0243 15.58 34.0243H36.88C39.76 34.0243 42.28 31.6643 42.5 28.8043L43.58 13.8043C43.82 10.4843 41.3 7.7843 37.96 7.7843H12.14" stroke="#383535" stroke-width="1.5" stroke-miterlimit="10" stroke-linecap="round" stroke-linejoin="round"/>
<path d="M33 44.0443C34.3807 44.0443 35.5 42.925 35.5 41.5443C35.5 40.1636 34.3807 39.0443 33 39.0443C31.6193 39.0443 30.5 40.1636 30.5 41.5443C30.5 42.925 31.6193 44.0443 33 44.0443Z" stroke="#383535" stroke-width="1.5" stroke-miterlimit="10" stroke-linecap="round" stroke-linejoin="round"/>
<path d="M17 44.0443C18.3807 44.0443 19.5 42.925 19.5 41.5443C19.5 40.1636 18.3807 39.0443 17 39.0443C15.6193 39.0443 14.5 40.1636 14.5 41.5443C14.5 42.925 15.6193 44.0443 17 44.0443Z" stroke="#383535" stroke-width="1.5" stroke-miterlimit="10" stroke-linecap="round" stroke-linejoin="round"/>
<path d="M18.5 16.0443H42.5" stroke="#383535" stroke-width="1.5" stroke-miterlimit="10" stroke-linecap="round" stroke-linejoin="round"/>
</svg>
