<svg width="32" height="32" viewBox="0 0 32 32" fill="none" xmlns="http://www.w3.org/2000/svg">
<path d="M24.84 9.5334C24.8933 10.3467 24.8267 11.2667 24.6667 12.2934L23.6933 18.5467C22.8667 23.7601 20.4533 25.5201 15.24 24.7067L8.98666 23.7201C7.18666 23.4401 5.79999 22.9601 4.78666 22.2401C2.85333 20.8934 2.29333 18.6801 2.82666 15.2667L3.81333 9.0134C4.63999 3.80007 7.05333 2.04007 12.2667 2.8534L18.52 3.84007C22.7067 4.4934 24.6667 6.20007 24.84 9.5334Z" stroke="#383535" stroke-width="1.5" stroke-linecap="round" stroke-linejoin="round"/>
<path d="M27.3333 17.96L25.3333 23.9733C23.6667 28.9867 21 30.32 15.9867 28.6533L9.97335 26.6533C6.94668 25.6533 5.26668 24.2667 4.78668 22.24C5.80002 22.96 7.18668 23.44 8.98668 23.72L15.24 24.7067C20.4533 25.52 22.8667 23.76 23.6933 18.5467L24.6667 12.2933C24.8267 11.2667 24.8933 10.3467 24.84 9.53333C28.0267 11.2267 28.72 13.7867 27.3333 17.96Z" stroke="#383535" stroke-width="1.5" stroke-linecap="round" stroke-linejoin="round"/>
<path d="M10.9867 11.9734C12.268 11.9734 13.3067 10.9347 13.3067 9.65337C13.3067 8.37207 12.268 7.33337 10.9867 7.33337C9.70537 7.33337 8.66667 8.37207 8.66667 9.65337C8.66667 10.9347 9.70537 11.9734 10.9867 11.9734Z" stroke="#383535" stroke-width="1.5" stroke-linecap="round" stroke-linejoin="round"/>
</svg>
