<svg width="36" height="37" viewBox="0 0 36 37" fill="none" xmlns="http://www.w3.org/2000/svg">
<path d="M0 18.0886C0 8.1475 8.05887 0.088623 18 0.088623V0.088623C27.9411 0.088623 36 8.1475 36 18.0886V18.0886C36 28.0297 27.9411 36.0886 18 36.0886V36.0886C8.05887 36.0886 0 28.0297 0 18.0886V18.0886Z" fill="#383535"/>
<path d="M21.3329 11.422V11.4233H21.3333V14.0899H19.9999C19.5399 14.0899 19.3333 14.6291 19.3333 15.09V16.7566H19.3333H21.3333V19.4233H19.3333V24.7566L16.6663 24.7553L16.6666 19.4233H14.6666V16.7566H16.6666L16.6667 14.0899C16.6667 12.6172 17.8605 11.4233 19.3333 11.4233L21.3329 11.422Z" fill="white"/>
</svg>
