<svg width="36" height="37" viewBox="0 0 36 37" fill="none" xmlns="http://www.w3.org/2000/svg">
<rect y="0.088623" width="36" height="36" rx="18" fill="#383535"/>
<path d="M26 18.0886C26 19.6961 26 20.7802 25.9626 21.3783C25.8879 22.8363 25.4766 23.9578 24.6542 24.7428C23.8318 25.5279 22.7477 25.9765 21.2897 26.0512C20.6916 26.0886 19.5701 26.0886 18 26.0886C16.3925 26.0886 15.3084 26.0886 14.7103 26.0512C13.2523 25.9765 12.1308 25.5653 11.3458 24.7428C10.5607 23.9578 10.1121 22.8363 10.0374 21.3783C10 20.7802 10 19.6587 10 18.0886C10 16.5185 10 15.397 10.0374 14.7989C10.1121 13.341 10.5234 12.2195 11.3458 11.4344C12.1308 10.6494 13.2523 10.2008 14.7103 10.126C15.3084 10.0886 16.4299 10.0886 18 10.0886C19.6075 10.0886 20.6916 10.0886 21.2897 10.126C22.7477 10.2008 23.8692 10.612 24.6542 11.4344C25.4393 12.2568 25.8879 13.341 25.9626 14.7989C25.9626 15.397 26 16.4811 26 18.0886ZM18.785 11.5092C18.2991 11.5092 18.0374 11.5092 18 11.5092C17.9626 11.5092 17.7009 11.5092 17.215 11.5092C16.729 11.5092 16.3551 11.5092 16.1308 11.5092C15.8692 11.5092 15.5327 11.5092 15.1215 11.5466C14.7103 11.5466 14.3364 11.584 14.0374 11.6587C13.7383 11.6961 13.4766 11.7709 13.2897 11.8456C12.9533 11.9952 12.6542 12.1821 12.3551 12.4438C12.0935 12.7054 11.9065 13.0045 11.757 13.3783C11.6822 13.5653 11.6075 13.8269 11.5701 14.126C11.5327 14.4251 11.4953 14.7615 11.4579 15.2101C11.4579 15.6213 11.4206 15.9578 11.4206 16.2195C11.4206 16.4811 11.4206 16.855 11.4206 17.3036C11.4206 17.7896 11.4206 18.0512 11.4206 18.0886C11.4206 18.126 11.4206 18.3877 11.4206 18.8737C11.4206 19.3597 11.4206 19.7335 11.4206 19.9578C11.4206 20.2195 11.4206 20.5559 11.4579 20.9671C11.4579 21.3783 11.4953 21.7522 11.5701 22.0512C11.6449 22.3503 11.6822 22.612 11.757 22.7989C11.9065 23.1354 12.0935 23.4344 12.3551 23.7335C12.6168 23.9952 12.9159 24.1821 13.2897 24.3316C13.4766 24.4064 13.7383 24.4811 14.0374 24.5185C14.3364 24.5559 14.6729 24.5933 15.1215 24.6307C15.5701 24.6681 15.8692 24.6681 16.1308 24.6681C16.3925 24.6681 16.7664 24.6681 17.215 24.6681C17.7009 24.6681 17.9626 24.6681 18 24.6681C18.0374 24.6681 18.2991 24.6681 18.785 24.6681C19.271 24.6681 19.6449 24.6681 19.8692 24.6681C20.1308 24.6681 20.4673 24.6681 20.8785 24.6307C21.2897 24.6307 21.6636 24.5933 21.9626 24.5185C22.2617 24.4811 22.5234 24.4064 22.7103 24.3316C23.0467 24.1821 23.3458 23.9952 23.6449 23.7335C23.9065 23.4718 24.0935 23.1727 24.243 22.7989C24.3178 22.612 24.3925 22.3503 24.4299 22.0512C24.4673 21.7522 24.5047 21.4157 24.5421 20.9671C24.5421 20.5559 24.5794 20.2195 24.5794 19.9578C24.5794 19.6961 24.5794 19.3223 24.5794 18.8737C24.5794 18.3877 24.5794 18.126 24.5794 18.0886C24.5794 18.0512 24.5794 17.7896 24.5794 17.3036C24.5794 16.8176 24.5794 16.4438 24.5794 16.2195C24.5794 15.9578 24.5794 15.6213 24.5421 15.2101C24.5421 14.7989 24.5047 14.4251 24.4299 14.126C24.3925 13.8269 24.3178 13.5653 24.243 13.3783C24.0935 13.0419 23.9065 12.7428 23.6449 12.4438C23.3832 12.1821 23.0841 11.9952 22.7103 11.8456C22.5234 11.7709 22.2617 11.6961 21.9626 11.6587C21.6636 11.6213 21.3271 11.584 20.8785 11.5466C20.4673 11.5466 20.1308 11.5092 19.8692 11.5092C19.6449 11.5092 19.271 11.5092 18.785 11.5092ZM20.8785 15.1727C21.6636 15.9578 22.0748 16.9297 22.0748 18.0886C22.0748 19.2475 21.6636 20.1821 20.8785 21.0045C20.0935 21.7896 19.1215 22.2008 17.9626 22.2008C16.8037 22.2008 15.8692 21.7896 15.0467 21.0045C14.2617 20.2195 13.8505 19.2475 13.8505 18.0886C13.8505 16.9297 14.2617 15.9952 15.0467 15.1727C15.8318 14.3877 16.8037 13.9765 17.9626 13.9765C19.1215 13.9765 20.0935 14.3503 20.8785 15.1727ZM19.8692 19.9578C20.3925 19.4344 20.6542 18.7989 20.6542 18.0886C20.6542 17.3783 20.3925 16.7054 19.8692 16.1821C19.3458 15.6587 18.7103 15.397 17.9626 15.397C17.215 15.397 16.5794 15.6587 16.0561 16.1821C15.5327 16.7054 15.271 17.341 15.271 18.0886C15.271 18.8363 15.5327 19.4718 16.0561 19.9578C16.5794 20.4811 17.215 20.7428 17.9626 20.7428C18.7103 20.7428 19.3458 20.4811 19.8692 19.9578ZM22.9346 13.1167C23.1215 13.3036 23.2336 13.5279 23.2336 13.7896C23.2336 14.0512 23.1215 14.2755 22.9346 14.4625C22.7477 14.6494 22.5234 14.7615 22.2617 14.7615C22 14.7615 21.7757 14.6494 21.5888 14.4625C21.4019 14.2755 21.2897 14.0512 21.2897 13.7896C21.2897 13.5279 21.4019 13.3036 21.5888 13.1167C21.7757 12.9297 22 12.8176 22.2617 12.8176C22.5234 12.8176 22.7477 12.9297 22.9346 13.1167Z" fill="white"/>
</svg>
