<svg width="36" height="37" viewBox="0 0 36 37" fill="none" xmlns="http://www.w3.org/2000/svg">
<path d="M0 18.0886C0 8.1475 8.05888 0.088623 18 0.088623C27.9411 0.088623 36 8.1475 36 18.0886C36 28.0297 27.9411 36.0886 18 36.0886C8.05888 36.0886 0 28.0297 0 18.0886Z" fill="#383535"/>
<path d="M24.9728 14.0968C24.4598 14.3244 23.9083 14.4782 23.3296 14.5473C23.9202 14.1933 24.374 13.6326 24.5876 12.9644C24.0347 13.2923 23.4224 13.5304 22.7707 13.6587C22.2488 13.1027 21.5053 12.7552 20.6824 12.7552C19.1023 12.7552 17.8212 14.0362 17.8212 15.6163C17.8212 15.8405 17.8465 16.0589 17.8953 16.2683C15.5174 16.149 13.4092 15.0099 11.9981 13.2789C11.7518 13.7015 11.6107 14.193 11.6107 14.7173C11.6107 15.7099 12.1158 16.5857 12.8835 17.0988C12.4146 17.0838 11.9733 16.9552 11.5876 16.7409C11.5874 16.7528 11.5874 16.7648 11.5874 16.7768C11.5874 18.1631 12.5736 19.3194 13.8824 19.5823C13.6424 19.6477 13.3896 19.6827 13.1287 19.6827C12.9443 19.6827 12.7651 19.6647 12.5903 19.6314C12.9544 20.768 14.0111 21.5952 15.2631 21.6182C14.2839 22.3857 13.0502 22.8431 11.7097 22.8431C11.4788 22.8431 11.251 22.8295 11.0272 22.803C12.2934 23.6148 13.7973 24.0886 15.413 24.0886C20.6756 24.0886 23.5535 19.7289 23.5535 15.948C23.5535 15.824 23.5507 15.7006 23.5452 15.5779C24.1042 15.1745 24.5893 14.6706 24.9728 14.0968Z" fill="white"/>
</svg>
