<svg width="53" height="16" viewBox="0 0 53 16" fill="none" xmlns="http://www.w3.org/2000/svg">
<path d="M15.0708 0C15.3322 0.197187 16.8618 1.66644 17.0472 1.89578C16.8718 2.17656 5.92698 15.7953 5.71023 16C5.59403 15.9346 5.5337 15.8178 5.45661 15.7192C4.06225 13.9392 2.67012 12.1581 1.27799 10.378C0.879123 9.86792 0.479138 9.35887 0.0825041 8.84662C-0.0314582 8.6998 -0.0314582 8.6923 0.108201 8.55727C0.688068 7.99893 1.27017 7.44166 1.85227 6.88547C1.95841 6.78473 1.99752 6.7858 2.08355 6.89189C2.26008 7.11266 2.43326 7.33557 2.60755 7.55847C3.57176 8.79196 4.53597 10.0255 5.5013 11.2589C5.57169 11.349 5.64878 11.4358 5.71358 11.514C5.74934 11.5108 5.76163 11.5119 5.77168 11.5076C5.78285 11.5033 5.79179 11.4947 5.80073 11.4872C5.80967 11.4797 5.81749 11.4701 5.82531 11.4615C5.84095 11.4443 5.85659 11.4261 5.87224 11.409C5.88006 11.4004 5.88676 11.3908 5.89458 11.3811C5.91693 11.3532 5.93927 11.3265 5.96162 11.2986C8.96486 7.56062 11.967 3.82264 14.9702 0.0857334C14.978 0.0760884 14.9848 0.0675151 14.9937 0.0589417C15.0015 0.0503684 15.0104 0.0428667 15.0205 0.035365C15.0294 0.0278634 15.0395 0.0214334 15.0708 0Z" fill="#176EF0"/>
<path d="M29.7778 13.1097C29.7778 12.3917 29.7778 11.6726 29.7778 10.9546C29.7778 10.8967 29.7789 10.8389 29.7755 10.781C29.7688 10.6631 29.7454 10.6363 29.6269 10.6342C29.4337 10.6288 29.2404 10.632 29.0471 10.6288C28.9599 10.6278 28.9141 10.5795 28.9141 10.497C28.9141 10.0919 28.9152 9.68576 28.9175 9.28067C28.9175 9.21208 28.9644 9.17243 29.0314 9.17028C29.2001 9.16493 29.37 9.16814 29.5387 9.16493C29.7655 9.16064 29.7755 9.15207 29.7767 8.92273C29.78 8.50585 29.7767 8.0879 29.7778 7.67102C29.7789 7.34524 29.8191 7.02374 29.9051 6.70867C30.0783 6.07424 30.4873 5.64986 31.1464 5.4666C31.8302 5.27585 32.5218 5.22762 33.2201 5.40873C33.3162 5.43338 33.3676 5.48053 33.3676 5.57484C33.3676 5.97993 33.3676 6.38609 33.3654 6.79118C33.3654 6.85763 33.3084 6.89406 33.2413 6.87049C33.0481 6.8019 32.8536 6.74403 32.6436 6.75046C32.5218 6.75475 32.4045 6.77296 32.2872 6.80619C32.0615 6.87049 31.9151 7.01409 31.8358 7.22307C31.7777 7.37631 31.7408 7.53599 31.7386 7.69889C31.7319 8.12755 31.733 8.55622 31.7353 8.98489C31.7364 9.13921 31.7632 9.16278 31.9285 9.16493C32.2302 9.16921 32.533 9.16707 32.8347 9.16814C32.9229 9.16814 32.9676 9.21208 32.9676 9.29674C32.9676 9.69112 32.9698 10.0844 32.9665 10.4788C32.9654 10.6042 32.9341 10.6288 32.7844 10.6299C32.543 10.6331 32.3006 10.631 32.0593 10.632C32.0112 10.632 31.9621 10.631 31.914 10.6331C31.7665 10.6395 31.742 10.661 31.7353 10.7906C31.7319 10.8721 31.733 10.9525 31.733 11.0339C31.733 12.4131 31.7341 13.7924 31.7319 15.1716C31.7319 15.6399 31.7788 15.5831 31.314 15.5864C30.8794 15.5885 30.4437 15.5885 30.0091 15.5864C29.7901 15.5853 29.7789 15.5756 29.7789 15.3731C29.7767 14.6154 29.7778 13.8631 29.7778 13.1097Z" fill="#176EF0"/>
<path d="M21.7725 10.5463C21.9077 10.4434 21.9189 10.3352 21.9647 10.2452C22.1032 9.97299 22.2652 9.71686 22.4898 9.50038C22.8473 9.15637 23.2797 8.97419 23.7847 8.95597C24.0506 8.94633 24.3166 8.95169 24.5758 9.0192C24.6417 9.03635 24.6808 9.08136 24.6707 9.14673C24.5668 9.75115 24.5232 10.3652 24.3814 10.9632C24.3791 10.9729 24.3657 10.9804 24.3467 10.9996C24.1914 10.9686 24.0283 10.9364 23.8652 10.901C23.5266 10.8271 23.1903 10.8593 22.8596 10.9375C22.4328 11.0393 22.1323 11.2869 21.9837 11.693C21.9111 11.8913 21.8597 12.0927 21.8485 12.3028C21.8373 12.5225 21.8284 12.7432 21.8284 12.9629C21.8261 13.7045 21.8273 14.4461 21.8273 15.1877C21.8273 15.2799 21.825 15.3731 21.8217 15.4653C21.8194 15.5317 21.7803 15.5714 21.7111 15.5789C21.6753 15.5832 21.6384 15.5821 21.6027 15.5821C21.1077 15.5821 20.6117 15.5842 20.1167 15.581C19.8843 15.58 19.8843 15.5757 19.8787 15.341C19.8776 15.2831 19.8787 15.2252 19.8787 15.1674C19.8787 13.3016 19.8787 11.4358 19.8787 9.57004C19.8787 9.52396 19.8787 9.4768 19.8787 9.43072C19.8776 9.16495 19.8821 9.16173 20.1614 9.1628C20.6083 9.16388 21.0552 9.16173 21.5021 9.16388C21.7859 9.16495 21.7882 9.16816 21.7859 9.42643C21.7848 9.6697 21.777 9.91297 21.7736 10.1562C21.7714 10.272 21.7725 10.3877 21.7725 10.5463Z" fill="#176EF0"/>
<path d="M27.5801 12.4153C27.5801 13.3412 27.5801 14.2682 27.5801 15.1941C27.5801 15.2863 27.579 15.3795 27.5745 15.4717C27.5712 15.5392 27.5276 15.5767 27.4595 15.5788C27.3388 15.5831 27.2181 15.5831 27.0975 15.5831C26.6628 15.5831 26.2282 15.5842 25.7936 15.581C25.6707 15.5799 25.6405 15.5499 25.6349 15.4417C25.6305 15.3613 25.6327 15.2799 25.6327 15.1984C25.6327 13.3112 25.6327 11.4229 25.6327 9.53571C25.6327 9.47784 25.6316 9.41997 25.6338 9.3621C25.6405 9.18099 25.6495 9.16706 25.845 9.16599C26.3522 9.16277 26.8595 9.16277 27.3667 9.16599C27.5622 9.16706 27.5768 9.18313 27.5812 9.35889C27.5846 9.52071 27.5824 9.6836 27.5824 9.84542C27.5812 10.7017 27.5801 11.5579 27.5801 12.4153Z" fill="#176EF0"/>
<path d="M36.1943 12.3606C36.1943 13.3326 36.1955 14.3057 36.1932 15.2777C36.1932 15.581 36.1899 15.582 35.8759 15.5831C35.3933 15.5842 34.9106 15.5842 34.4279 15.581C34.276 15.5799 34.257 15.5595 34.2514 15.4245C34.248 15.3441 34.2492 15.2627 34.2492 15.1812C34.2492 13.3058 34.248 11.4304 34.2492 9.55497C34.2492 9.12095 34.2045 9.16488 34.6536 9.16274C35.0637 9.1606 35.4748 9.1606 35.8849 9.16274C36.1899 9.16381 36.191 9.16596 36.1932 9.44245C36.1955 9.72001 36.1932 9.99757 36.1932 10.2762C36.1943 10.9717 36.1943 11.6662 36.1943 12.3606Z" fill="#176EF0"/>
<path d="M36.3596 6.52111C36.3619 7.12875 35.839 7.62708 35.2044 7.62386C34.5954 7.62065 34.0737 7.11911 34.0692 6.5329C34.0647 5.94563 34.5765 5.44302 35.191 5.4323C35.8267 5.42158 36.3574 5.91669 36.3596 6.52111Z" fill="#176EF0"/>
<path d="M25.4696 6.53182C25.4316 6.04314 25.8819 5.44515 26.5847 5.43551C27.3031 5.42479 27.7522 6.01849 27.7522 6.52432C27.7522 7.04301 27.3008 7.62707 26.5936 7.62385C25.8908 7.61957 25.4339 7.00657 25.4696 6.53182Z" fill="#176EF0"/>
<path d="M52.8686 15.1341C52.8697 12.0488 52.8697 8.96453 52.8697 5.8792C52.8697 5.79775 52.8719 5.71631 52.8686 5.63593C52.8619 5.45911 52.8395 5.43339 52.6585 5.43231C52.187 5.4291 51.7156 5.43124 51.2441 5.43124C51.2195 5.43124 51.196 5.43231 51.1714 5.43231C51.0876 5.43446 51.0329 5.46982 51.0295 5.55556C51.0262 5.64772 51.0262 5.74095 51.0262 5.83419C51.0262 6.63472 51.024 7.43419 51.0262 8.23472C51.0284 8.85843 51.0094 9.48215 51.0586 10.1059C51.0005 10.1134 50.9681 10.0801 50.9379 10.0437C50.862 9.95368 50.7882 9.86152 50.7067 9.77578C50.3514 9.39641 49.9335 9.09956 49.4039 9.00097C48.7123 8.87237 48.0297 8.9163 47.385 9.2153C46.7057 9.53037 46.2811 10.063 46.0174 10.7264C45.87 11.0971 45.804 11.4851 45.7649 11.8795C45.7012 12.5332 45.7381 13.1815 45.956 13.8042C46.3414 14.9101 47.071 15.6732 48.3369 15.8178C49.3469 15.9325 50.234 15.6978 50.8742 14.8726C50.8999 14.8394 50.9223 14.788 51.0005 14.8169C51.0005 14.9584 51.005 15.1052 50.9994 15.252C50.9882 15.5949 50.986 15.5842 51.3212 15.5842C51.6843 15.5842 52.0463 15.5864 52.4094 15.5831C52.9256 15.5799 52.8686 15.6432 52.8686 15.1341ZM51.0385 12.9254C50.8731 13.7163 50.2787 14.2125 49.3939 14.1986C48.8955 14.1911 48.4665 14.0496 48.1425 13.6745C47.9213 13.4184 47.804 13.114 47.7604 12.7861C47.7403 12.6371 47.7369 12.486 47.7313 12.4164C47.7336 12.0681 47.7593 11.8034 47.8487 11.5472C48.0688 10.9128 48.6207 10.5238 49.319 10.5002C49.8575 10.482 50.3212 10.6267 50.672 11.0371C50.9346 11.3447 51.0474 11.7101 51.0832 12.097C51.1089 12.3714 51.0966 12.6489 51.0385 12.9254Z" fill="#176EF0"/>
<path d="M44.6264 11.3618C44.3314 10.1797 43.594 9.39529 42.3583 9.06628C41.9226 8.95054 41.4757 8.93983 41.0276 8.9559C39.5361 9.00734 38.2903 9.94291 37.887 11.3211C37.6836 12.0166 37.6769 12.7217 37.8534 13.4194C38.1719 14.6722 38.9897 15.4598 40.3103 15.7481C40.9315 15.8842 41.5572 15.8789 42.1807 15.7567C43.1069 15.5756 43.8085 15.0805 44.3314 14.3367C44.4309 14.1953 44.4264 14.1728 44.2789 14.0999C44.0856 14.0035 43.8901 13.9124 43.6957 13.8191C43.4264 13.6905 43.1572 13.5609 42.9013 13.4387C42.7896 13.4955 42.7482 13.5834 42.6857 13.653C42.3751 13.9938 41.9829 14.1749 41.5136 14.1996C41.3695 14.2071 41.2232 14.2092 41.079 14.1985C40.4366 14.1492 39.993 13.8416 39.7808 13.2522C39.621 12.8096 39.6735 12.8428 40.0701 12.8428C41.46 12.8428 42.8499 12.8428 44.2398 12.8428C44.337 12.8428 44.4331 12.845 44.5303 12.8396C44.6688 12.8321 44.7024 12.8043 44.7124 12.6767C44.7437 12.2341 44.7348 11.7937 44.6264 11.3618ZM42.6332 11.6962C42.5728 11.6994 42.5125 11.7004 42.4522 11.7004C41.6444 11.7004 40.8377 11.7015 40.0299 11.7004C39.9472 11.7004 39.8601 11.7144 39.7841 11.6661C39.7919 11.2889 40.0031 10.9246 40.3427 10.7167C40.4232 10.6674 40.5092 10.6202 40.5997 10.5913C41.0355 10.4487 41.4768 10.4369 41.9125 10.5816C42.4064 10.7467 42.6522 11.1121 42.7393 11.5901C42.7516 11.6608 42.7035 11.6929 42.6332 11.6962Z" fill="#176EF0"/>
<path d="M18.3637 11.5065C18.1056 10.2591 17.3704 9.41996 16.0744 9.06845C15.6029 8.94092 15.118 8.92377 14.6353 8.96235C13.2276 9.07595 12.2287 9.76503 11.7058 11.0178C11.3148 11.9555 11.3416 12.9297 11.7069 13.8749C12.0611 14.7901 12.7505 15.3945 13.727 15.6764C14.5325 15.9089 15.3493 15.9068 16.1582 15.6903C16.9749 15.4717 17.5861 14.9819 18.052 14.3132C18.1246 14.2092 18.1101 14.161 17.9816 14.0989C17.6374 13.9306 17.2911 13.7645 16.9459 13.5995C16.8285 13.5437 16.709 13.4912 16.6029 13.443C16.5738 13.4569 16.5593 13.4601 16.5526 13.4676C16.5056 13.5202 16.4587 13.5737 16.4129 13.6263C16.0923 13.9949 15.6777 14.1803 15.1806 14.1996C15.0476 14.205 14.9146 14.205 14.7817 14.1964C14.0018 14.146 13.4801 13.6402 13.4164 12.875C13.5404 12.8118 13.6756 12.8418 13.8063 12.8418C15.1839 12.8396 16.5615 12.8407 17.9391 12.8407C18.0363 12.8407 18.1324 12.8439 18.2296 12.8396C18.3793 12.8332 18.414 12.8011 18.4262 12.6489C18.4564 12.2663 18.4419 11.8837 18.3637 11.5065ZM16.1001 11.7015C15.7135 11.7005 15.3258 11.7015 14.9392 11.7015V11.7005C14.4923 11.7005 14.0443 11.7026 13.5974 11.6994C13.4722 11.6983 13.4477 11.6619 13.4756 11.5504C13.632 10.9171 14.1069 10.5302 14.7862 10.4938C15.0398 10.4798 15.2923 10.4809 15.5403 10.5538C15.9526 10.6749 16.2353 10.9256 16.3705 11.3147C16.5101 11.7165 16.5101 11.7026 16.1001 11.7015Z" fill="#176EF0"/>
</svg>
