<svg width="36" height="37" viewBox="0 0 36 37" fill="none" xmlns="http://www.w3.org/2000/svg">
<path d="M0 18.0886C0 8.1475 8.05888 0.088623 18 0.088623C27.9411 0.088623 36 8.1475 36 18.0886C36 28.0297 27.9411 36.0886 18 36.0886C8.05888 36.0886 0 28.0297 0 18.0886Z" fill="#383535"/>
<g clip-path="url(#clip0_2_794)">
<path d="M25.191 13.9663C25.0181 13.2322 24.5115 12.6533 23.869 12.4557C22.6952 12.0886 18 12.0886 18 12.0886C18 12.0886 13.3048 12.0886 12.131 12.4416C11.5008 12.6392 10.9819 13.2322 10.8089 13.9663C10.5 15.3074 10.5 18.0886 10.5 18.0886C10.5 18.0886 10.5 20.8839 10.8089 22.211C10.9819 22.9451 11.4885 23.5239 12.131 23.7216C13.3171 24.0886 18 24.0886 18 24.0886C18 24.0886 22.6952 24.0886 23.869 23.7357C24.5115 23.538 25.0181 22.9592 25.191 22.2251C25.4999 20.8839 25.4999 18.1027 25.4999 18.1027C25.4999 18.1027 25.5123 15.3074 25.191 13.9663Z" fill="white"/>
<path d="M20.4094 18.0887L16.505 15.5193V20.6581L20.4094 18.0887Z" fill="#383535"/>
</g>
<defs>
<clipPath id="clip0_2_794">
<rect width="15" height="12" fill="white" transform="translate(10.5 12.0886)"/>
</clipPath>
</defs>
</svg>
